STARTFONT 2.1
FONT -Monotype-Monotype Corsiva-Regular-R-Normal--12-120-75-75-P-58-iso8859-2
SIZE 12 75 75
FONTBOUNDINGBOX 16 15 -3 -4

STARTPROPERTIES 24
FOUNDRY "Monotype"
FAMILY_NAME "Monotype Corsiva"
WEIGHT_NAME "Regular"
SLANT "R"
SETWIDTH_NAME "Normal"
ADD_STYLE_NAME ""
PIXEL_SIZE 12
POINT_SIZE 120
RESOLUTION_X 75
RESOLUTION_Y 75
SPACING "P"
AVERAGE_WIDTH 58
CHARSET_REGISTRY "iso8859"
CHARSET_ENCODING "2"
FACE_NAME "Monotype Corsiva ISO Latin2"
_DEC_DEVICE_FONTNAMES "PS=monotypecorsiva-lat2"
COPYRIGHT "Copyright (c) 1994 Monotype Typography Ltd."
CAP_HEIGHT 9
X_HEIGHT 6
WEIGHT 10
QUAD_WIDTH 7
DEFAULT_CHAR 160
FONT_DESCENT 4
FONT_ASCENT 11
ENDPROPERTIES

CHARS 191

STARTCHAR space
ENCODING 32
SWIDTH 220 0
DWIDTH 3 0
BBX 0 0 0 0
BITMAP
ENDCHAR

STARTCHAR exclam
ENCODING 33
SWIDTH 280 0
DWIDTH 4 0
BBX 2 8 1 0
BITMAP
40
40
40
80
80
00
80
80
ENDCHAR

STARTCHAR quotedbl
ENCODING 34
SWIDTH 220 0
DWIDTH 3 0
BBX 3 4 0 4
BITMAP
A0
A0
A0
A0
ENDCHAR

STARTCHAR numbersign
ENCODING 35
SWIDTH 680 0
DWIDTH 9 0
BBX 7 8 2 0
BITMAP
14
14
7E
28
28
FC
50
50
ENDCHAR

STARTCHAR dollar
ENCODING 36
SWIDTH 440 0
DWIDTH 6 0
BBX 5 11 1 -2
BITMAP
10
38
50
50
20
20
50
50
E0
40
40
ENDCHAR

STARTCHAR percent
ENCODING 37
SWIDTH 680 0
DWIDTH 9 0
BBX 7 8 1 0
BITMAP
44
A4
A8
50
14
2A
4A
44
ENDCHAR

STARTCHAR ampersand
ENCODING 38
SWIDTH 780 0
DWIDTH 10 0
BBX 10 9 0 -1
BITMAP
0040
0380
0500
6500
9100
B600
8C40
7A40
0180
ENDCHAR

STARTCHAR quoteright
ENCODING 39
SWIDTH 240 0
DWIDTH 3 0
BBX 2 3 1 5
BITMAP
40
40
80
ENDCHAR

STARTCHAR parenleft
ENCODING 40
SWIDTH 260 0
DWIDTH 3 0
BBX 5 12 0 -4
BITMAP
08
10
20
40
40
80
80
80
80
80
80
40
ENDCHAR

STARTCHAR parenright
ENCODING 41
SWIDTH 220 0
DWIDTH 3 0
BBX 5 12 -2 -4
BITMAP
10
08
08
08
08
08
08
10
10
20
40
80
ENDCHAR

STARTCHAR asterisk
ENCODING 42
SWIDTH 420 0
DWIDTH 5 0
BBX 5 5 1 3
BITMAP
20
F8
50
70
88
ENDCHAR

STARTCHAR plus
ENCODING 43
SWIDTH 520 0
DWIDTH 7 0
BBX 5 5 1 1
BITMAP
20
20
F8
20
20
ENDCHAR

STARTCHAR comma
ENCODING 44
SWIDTH 220 0
DWIDTH 3 0
BBX 2 3 0 -2
BITMAP
40
40
80
ENDCHAR

STARTCHAR minus
ENCODING 45
SWIDTH 600 0
DWIDTH 8 0
BBX 6 1 1 3
BITMAP
FC
ENDCHAR

STARTCHAR period
ENCODING 46
SWIDTH 220 0
DWIDTH 3 0
BBX 1 2 1 0
BITMAP
80
80
ENDCHAR

STARTCHAR slash
ENCODING 47
SWIDTH 340 0
DWIDTH 4 0
BBX 7 12 -1 -4
BITMAP
02
04
04
08
08
10
10
20
20
40
40
80
ENDCHAR

STARTCHAR zero
ENCODING 48
SWIDTH 440 0
DWIDTH 6 0
BBX 5 8 1 0
BITMAP
30
48
48
88
88
90
90
60
ENDCHAR

STARTCHAR one
ENCODING 49
SWIDTH 440 0
DWIDTH 6 0
BBX 3 8 2 0
BITMAP
20
60
20
20
40
40
40
E0
ENDCHAR

STARTCHAR two
ENCODING 50
SWIDTH 440 0
DWIDTH 6 0
BBX 6 8 0 0
BITMAP
18
24
04
08
10
20
44
F8
ENDCHAR

STARTCHAR three
ENCODING 51
SWIDTH 440 0
DWIDTH 6 0
BBX 5 8 1 0
BITMAP
10
28
08
30
08
08
90
60
ENDCHAR

STARTCHAR four
ENCODING 52
SWIDTH 440 0
DWIDTH 6 0
BBX 5 8 1 0
BITMAP
08
18
28
48
90
F8
10
10
ENDCHAR

STARTCHAR five
ENCODING 53
SWIDTH 440 0
DWIDTH 6 0
BBX 6 8 0 0
BITMAP
1C
10
30
08
08
08
90
60
ENDCHAR

STARTCHAR six
ENCODING 54
SWIDTH 440 0
DWIDTH 6 0
BBX 5 8 1 0
BITMAP
38
40
80
B0
C8
88
90
60
ENDCHAR

STARTCHAR seven
ENCODING 55
SWIDTH 440 0
DWIDTH 6 0
BBX 5 8 2 0
BITMAP
78
90
20
20
40
80
80
80
ENDCHAR

STARTCHAR eight
ENCODING 56
SWIDTH 440 0
DWIDTH 6 0
BBX 6 8 0 0
BITMAP
38
44
48
30
48
88
88
70
ENDCHAR

STARTCHAR nine
ENCODING 57
SWIDTH 440 0
DWIDTH 6 0
BBX 5 8 1 0
BITMAP
30
48
88
98
68
08
10
E0
ENDCHAR

STARTCHAR colon
ENCODING 58
SWIDTH 260 0
DWIDTH 3 0
BBX 2 5 1 0
BITMAP
40
40
00
80
80
ENDCHAR

STARTCHAR semicolon
ENCODING 59
SWIDTH 240 0
DWIDTH 3 0
BBX 3 7 0 -2
BITMAP
20
20
00
00
40
40
80
ENDCHAR

STARTCHAR less
ENCODING 60
SWIDTH 520 0
DWIDTH 7 0
BBX 6 5 1 1
BITMAP
0C
30
C0
30
0C
ENDCHAR

STARTCHAR equal
ENCODING 61
SWIDTH 520 0
DWIDTH 7 0
BBX 5 3 1 2
BITMAP
F8
00
F8
ENDCHAR

STARTCHAR greater
ENCODING 62
SWIDTH 520 0
DWIDTH 7 0
BBX 6 5 1 1
BITMAP
C0
30
0C
30
C0
ENDCHAR

STARTCHAR question
ENCODING 63
SWIDTH 380 0
DWIDTH 5 0
BBX 4 8 1 0
BITMAP
60
10
10
60
40
00
80
80
ENDCHAR

STARTCHAR at
ENCODING 64
SWIDTH 700 0
DWIDTH 9 0
BBX 8 9 1 -1
BITMAP
3C
42
8D
95
A5
AA
BC
42
3C
ENDCHAR

STARTCHAR A
ENCODING 65
SWIDTH 620 0
DWIDTH 8 0
BBX 9 10 -1 -2
BITMAP
0780
0980
1280
0480
0700
0900
1100
1180
2000
C000
ENDCHAR

STARTCHAR B
ENCODING 66
SWIDTH 600 0
DWIDTH 8 0
BBX 8 8 0 0
BITMAP
3E
41
89
8E
91
51
12
3C
ENDCHAR

STARTCHAR C
ENCODING 67
SWIDTH 520 0
DWIDTH 7 0
BBX 7 9 0 -1
BITMAP
1E
22
42
80
80
80
80
48
30
ENDCHAR

STARTCHAR D
ENCODING 68
SWIDTH 700 0
DWIDTH 9 0
BBX 9 8 0 0
BITMAP
3E00
4100
8880
8880
8880
5080
1100
3E00
ENDCHAR

STARTCHAR E
ENCODING 69
SWIDTH 620 0
DWIDTH 8 0
BBX 8 8 0 0
BITMAP
3F
49
88
8E
50
10
11
3E
ENDCHAR

STARTCHAR F
ENCODING 70
SWIDTH 580 0
DWIDTH 8 0
BBX 8 8 0 0
BITMAP
3F
49
88
8E
50
10
10
38
ENDCHAR

STARTCHAR G
ENCODING 71
SWIDTH 620 0
DWIDTH 8 0
BBX 7 11 1 -3
BITMAP
1C
22
42
80
80
8C
44
38
08
90
60
ENDCHAR

STARTCHAR H
ENCODING 72
SWIDTH 680 0
DWIDTH 9 0
BBX 11 8 0 0
BITMAP
3860
4880
4900
2F00
1100
1200
2200
C300
ENDCHAR

STARTCHAR I
ENCODING 73
SWIDTH 380 0
DWIDTH 5 0
BBX 4 8 1 0
BITMAP
70
20
20
20
40
40
40
E0
ENDCHAR

STARTCHAR J
ENCODING 74
SWIDTH 400 0
DWIDTH 5 0
BBX 6 10 0 -2
BITMAP
3C
44
44
24
08
08
08
08
90
60
ENDCHAR

STARTCHAR K
ENCODING 75
SWIDTH 660 0
DWIDTH 9 0
BBX 9 10 0 -2
BITMAP
7380
9100
9200
5400
3800
2800
2400
7400
0480
0300
ENDCHAR

STARTCHAR L
ENCODING 76
SWIDTH 580 0
DWIDTH 8 0
BBX 7 8 1 0
BITMAP
18
24
20
20
40
40
42
FC
ENDCHAR

STARTCHAR M
ENCODING 77
SWIDTH 840 0
DWIDTH 11 0
BBX 10 8 1 0
BITMAP
3840
48C0
4940
2A40
1A80
1480
2500
C580
ENDCHAR

STARTCHAR N
ENCODING 78
SWIDTH 700 0
DWIDTH 9 0
BBX 10 8 1 0
BITMAP
70C0
9900
9900
5500
1500
2600
2200
C200
ENDCHAR

STARTCHAR O
ENCODING 79
SWIDTH 600 0
DWIDTH 8 0
BBX 7 8 1 0
BITMAP
1C
22
42
42
84
84
88
70
ENDCHAR

STARTCHAR P
ENCODING 80
SWIDTH 540 0
DWIDTH 7 0
BBX 7 8 0 0
BITMAP
3C
42
92
92
9C
50
20
70
ENDCHAR

STARTCHAR Q
ENCODING 81
SWIDTH 600 0
DWIDTH 8 0
BBX 8 12 1 -4
BITMAP
1C
22
42
42
84
84
88
70
20
10
09
06
ENDCHAR

STARTCHAR R
ENCODING 82
SWIDTH 600 0
DWIDTH 8 0
BBX 9 10 0 -2
BITMAP
3C00
4200
9200
9200
5C00
2800
2400
7400
0480
0300
ENDCHAR

STARTCHAR S
ENCODING 83
SWIDTH 460 0
DWIDTH 6 0
BBX 5 9 1 -1
BITMAP
38
48
40
20
10
08
08
90
E0
ENDCHAR

STARTCHAR T
ENCODING 84
SWIDTH 500 0
DWIDTH 7 0
BBX 8 8 0 0
BITMAP
3F
48
88
88
50
10
10
38
ENDCHAR

STARTCHAR U
ENCODING 85
SWIDTH 740 0
DWIDTH 10 0
BBX 9 8 1 0
BITMAP
7880
8880
9080
1080
2100
2100
2200
1C00
ENDCHAR

STARTCHAR V
ENCODING 86
SWIDTH 640 0
DWIDTH 8 0
BBX 9 8 0 0
BITMAP
7880
8880
8900
4900
1200
1400
1800
1000
ENDCHAR

STARTCHAR W
ENCODING 87
SWIDTH 880 0
DWIDTH 11 0
BBX 12 8 0 0
BITMAP
7110
9110
9220
5620
2640
2A80
3300
2200
ENDCHAR

STARTCHAR X
ENCODING 88
SWIDTH 560 0
DWIDTH 7 0
BBX 9 9 0 -1
BITMAP
1980
0A00
0C00
0C00
0800
1400
2400
2600
C000
ENDCHAR

STARTCHAR Y
ENCODING 89
SWIDTH 560 0
DWIDTH 7 0
BBX 8 8 0 0
BITMAP
63
94
94
48
08
10
10
38
ENDCHAR

STARTCHAR Z
ENCODING 90
SWIDTH 620 0
DWIDTH 8 0
BBX 8 8 0 0
BITMAP
1F
22
04
08
10
20
41
FE
ENDCHAR

STARTCHAR bracketleft
ENCODING 91
SWIDTH 240 0
DWIDTH 3 0
BBX 4 12 0 -4
BITMAP
30
20
20
20
40
40
40
40
80
80
80
C0
ENDCHAR

STARTCHAR backslash
ENCODING 92
SWIDTH 480 0
DWIDTH 6 0
BBX 7 12 0 -4
BITMAP
80
40
40
20
20
10
10
08
08
04
04
02
ENDCHAR

STARTCHAR bracketright
ENCODING 93
SWIDTH 320 0
DWIDTH 4 0
BBX 4 12 0 -4
BITMAP
30
10
10
10
20
20
20
20
40
40
40
C0
ENDCHAR

STARTCHAR asciicircum
ENCODING 94
SWIDTH 520 0
DWIDTH 7 0
BBX 3 3 2 5
BITMAP
40
A0
A0
ENDCHAR

STARTCHAR underscore
ENCODING 95
SWIDTH 500 0
DWIDTH 7 0
BBX 7 1 0 -2
BITMAP
FE
ENDCHAR

STARTCHAR quoteleft
ENCODING 96
SWIDTH 240 0
DWIDTH 3 0
BBX 2 3 1 5
BITMAP
40
80
80
ENDCHAR

STARTCHAR a
ENCODING 97
SWIDTH 420 0
DWIDTH 5 0
BBX 5 5 0 0
BITMAP
38
48
90
B0
D8
ENDCHAR

STARTCHAR b
ENCODING 98
SWIDTH 420 0
DWIDTH 5 0
BBX 4 8 1 0
BITMAP
30
40
40
60
90
90
90
60
ENDCHAR

STARTCHAR c
ENCODING 99
SWIDTH 340 0
DWIDTH 4 0
BBX 4 5 0 0
BITMAP
30
50
80
90
E0
ENDCHAR

STARTCHAR d
ENCODING 100
SWIDTH 440 0
DWIDTH 6 0
BBX 7 8 0 0
BITMAP
06
08
08
38
50
90
B0
D8
ENDCHAR

STARTCHAR e
ENCODING 101
SWIDTH 340 0
DWIDTH 4 0
BBX 4 5 0 0
BITMAP
30
50
E0
80
60
ENDCHAR

STARTCHAR f
ENCODING 102
SWIDTH 320 0
DWIDTH 4 0
BBX 8 12 -3 -4
BITMAP
03
04
04
0E
04
08
08
08
10
10
10
E0
ENDCHAR

STARTCHAR g
ENCODING 103
SWIDTH 400 0
DWIDTH 5 0
BBX 5 9 0 -4
BITMAP
18
28
48
58
78
28
50
90
60
ENDCHAR

STARTCHAR h
ENCODING 104
SWIDTH 440 0
DWIDTH 6 0
BBX 5 8 1 0
BITMAP
30
40
40
A0
D0
90
A8
B0
ENDCHAR

STARTCHAR i
ENCODING 105
SWIDTH 240 0
DWIDTH 3 0
BBX 3 8 0 0
BITMAP
20
20
00
C0
40
80
A0
C0
ENDCHAR

STARTCHAR j
ENCODING 106
SWIDTH 220 0
DWIDTH 3 0
BBX 5 12 -2 -4
BITMAP
08
08
00
18
08
08
08
10
10
10
20
C0
ENDCHAR

STARTCHAR k
ENCODING 107
SWIDTH 440 0
DWIDTH 6 0
BBX 8 11 0 -3
BITMAP
18
20
20
30
48
70
A0
90
10
09
06
ENDCHAR

STARTCHAR l
ENCODING 108
SWIDTH 240 0
DWIDTH 3 0
BBX 4 8 0 0
BITMAP
30
40
40
40
80
80
A0
40
ENDCHAR

STARTCHAR m
ENCODING 109
SWIDTH 620 0
DWIDTH 8 0
BBX 8 5 1 0
BITMAP
5B
ED
49
92
93
ENDCHAR

STARTCHAR n
ENCODING 110
SWIDTH 460 0
DWIDTH 6 0
BBX 5 5 1 0
BITMAP
58
E8
48
90
98
ENDCHAR

STARTCHAR o
ENCODING 111
SWIDTH 400 0
DWIDTH 5 0
BBX 5 5 0 0
BITMAP
30
48
88
90
60
ENDCHAR

STARTCHAR p
ENCODING 112
SWIDTH 440 0
DWIDTH 6 0
BBX 6 9 0 -4
BITMAP
38
64
24
28
30
40
40
40
E0
ENDCHAR

STARTCHAR q
ENCODING 113
SWIDTH 400 0
DWIDTH 5 0
BBX 5 9 0 -4
BITMAP
38
48
90
90
70
20
20
20
70
ENDCHAR

STARTCHAR r
ENCODING 114
SWIDTH 300 0
DWIDTH 4 0
BBX 4 5 1 0
BITMAP
50
E0
40
80
80
ENDCHAR

STARTCHAR s
ENCODING 115
SWIDTH 320 0
DWIDTH 4 0
BBX 5 5 0 0
BITMAP
38
40
70
10
E0
ENDCHAR

STARTCHAR t
ENCODING 116
SWIDTH 320 0
DWIDTH 4 0
BBX 3 7 1 0
BITMAP
40
40
E0
40
80
A0
C0
ENDCHAR

STARTCHAR u
ENCODING 117
SWIDTH 460 0
DWIDTH 6 0
BBX 5 5 1 0
BITMAP
48
C8
50
B0
D8
ENDCHAR

STARTCHAR v
ENCODING 118
SWIDTH 440 0
DWIDTH 6 0
BBX 6 5 0 0
BITMAP
64
A4
48
50
60
ENDCHAR

STARTCHAR w
ENCODING 119
SWIDTH 680 0
DWIDTH 9 0
BBX 9 5 0 0
BITMAP
6480
A480
4D00
5500
6600
ENDCHAR

STARTCHAR x
ENCODING 120
SWIDTH 420 0
DWIDTH 5 0
BBX 8 8 0 -3
BITMAP
66
18
10
30
C8
08
09
06
ENDCHAR

STARTCHAR y
ENCODING 121
SWIDTH 400 0
DWIDTH 5 0
BBX 7 9 -2 -4
BITMAP
1A
2A
0A
0C
08
08
10
10
E0
ENDCHAR

STARTCHAR z
ENCODING 122
SWIDTH 440 0
DWIDTH 6 0
BBX 6 5 0 0
BITMAP
3C
48
30
44
F8
ENDCHAR

STARTCHAR braceleft
ENCODING 123
SWIDTH 240 0
DWIDTH 3 0
BBX 5 12 0 -4
BITMAP
18
20
20
20
40
80
40
80
80
80
80
60
ENDCHAR

STARTCHAR bar
ENCODING 124
SWIDTH 520 0
DWIDTH 7 0
BBX 1 12 3 -4
BITMAP
80
80
80
80
80
80
80
80
80
80
80
80
ENDCHAR

STARTCHAR braceright
ENCODING 125
SWIDTH 240 0
DWIDTH 3 0
BBX 5 12 -1 -4
BITMAP
30
08
08
08
08
10
08
10
20
20
20
C0
ENDCHAR

STARTCHAR asciitilde
ENCODING 126
SWIDTH 520 0
DWIDTH 7 0
BBX 5 2 1 3
BITMAP
68
B0
ENDCHAR

STARTCHAR space
ENCODING 160
SWIDTH 220 0
DWIDTH 3 0
BBX 0 0 0 0
BITMAP
ENDCHAR

STARTCHAR Aogonek
ENCODING 161
SWIDTH 620 0
DWIDTH 8 0
BBX 10 11 -1 -3
BITMAP
0780
0980
1280
0480
0700
0900
1100
1180
2100
C100
00C0
ENDCHAR

STARTCHAR breve
ENCODING 162
SWIDTH 440 0
DWIDTH 6 0
BBX 4 2 1 6
BITMAP
90
60
ENDCHAR

STARTCHAR Lslash
ENCODING 163
SWIDTH 580 0
DWIDTH 8 0
BBX 8 8 0 0
BITMAP
0C
12
10
1C
60
A0
21
7E
ENDCHAR

STARTCHAR currency
ENCODING 164
SWIDTH 600 0
DWIDTH 8 0
BBX 6 6 1 1
BITMAP
B4
48
84
84
48
B4
ENDCHAR

STARTCHAR Lcaron
ENCODING 165
SWIDTH 580 0
DWIDTH 8 0
BBX 8 9 1 0
BITMAP
03
19
26
20
20
40
40
42
FC
ENDCHAR

STARTCHAR Sacute
ENCODING 166
SWIDTH 460 0
DWIDTH 6 0
BBX 5 12 1 -1
BITMAP
08
10
00
38
48
40
20
10
08
08
90
E0
ENDCHAR

STARTCHAR section
ENCODING 167
SWIDTH 420 0
DWIDTH 5 0
BBX 5 12 0 -3
BITMAP
18
28
20
50
48
48
28
28
28
30
A0
C0
ENDCHAR

STARTCHAR dieresis
ENCODING 168
SWIDTH 360 0
DWIDTH 5 0
BBX 3 1 2 6
BITMAP
A0
ENDCHAR

STARTCHAR Scaron
ENCODING 169
SWIDTH 460 0
DWIDTH 6 0
BBX 5 12 1 -1
BITMAP
28
10
00
38
48
40
20
10
08
08
90
E0
ENDCHAR

STARTCHAR Scommaaccent
ENCODING 170
SWIDTH 460 0
DWIDTH 6 0
BBX 6 12 0 -4
BITMAP
1C
24
20
10
08
04
04
48
70
00
40
80
ENDCHAR

STARTCHAR Tcaron
ENCODING 171
SWIDTH 500 0
DWIDTH 7 0
BBX 8 11 0 0
BITMAP
14
08
00
3F
48
88
88
50
10
10
38
ENDCHAR

STARTCHAR Zacute
ENCODING 172
SWIDTH 620 0
DWIDTH 8 0
BBX 8 11 0 0
BITMAP
02
04
00
1F
22
04
08
10
20
41
FE
ENDCHAR

STARTCHAR hyphen
ENCODING 173
SWIDTH 280 0
DWIDTH 4 0
BBX 3 1 1 2
BITMAP
E0
ENDCHAR

STARTCHAR Zcaron
ENCODING 174
SWIDTH 620 0
DWIDTH 8 0
BBX 8 11 0 0
BITMAP
0A
04
00
1F
22
04
08
10
20
41
FE
ENDCHAR

STARTCHAR Zdotaccent
ENCODING 175
SWIDTH 620 0
DWIDTH 8 0
BBX 8 10 0 0
BITMAP
04
00
1F
22
04
08
10
20
41
FE
ENDCHAR

STARTCHAR degree
ENCODING 176
SWIDTH 400 0
DWIDTH 5 0
BBX 4 4 1 4
BITMAP
60
90
90
60
ENDCHAR

STARTCHAR aogonek
ENCODING 177
SWIDTH 420 0
DWIDTH 5 0
BBX 6 8 0 -3
BITMAP
38
48
90
B8
D0
10
10
0C
ENDCHAR

STARTCHAR ogonek
ENCODING 178
SWIDTH 280 0
DWIDTH 4 0
BBX 2 3 1 -3
BITMAP
80
80
40
ENDCHAR

STARTCHAR lslash
ENCODING 179
SWIDTH 300 0
DWIDTH 3 0
BBX 5 8 -1 0
BITMAP
18
20
20
30
C0
40
50
20
ENDCHAR

STARTCHAR acute
ENCODING 180
SWIDTH 300 0
DWIDTH 4 0
BBX 2 2 1 6
BITMAP
40
80
ENDCHAR

STARTCHAR lcaron
ENCODING 181
SWIDTH 337 0
DWIDTH 4 0
BBX 6 8 0 0
BITMAP
3C
44
48
40
80
80
A0
40
ENDCHAR

STARTCHAR sacute
ENCODING 182
SWIDTH 320 0
DWIDTH 4 0
BBX 5 8 0 0
BITMAP
08
10
00
38
40
70
10
E0
ENDCHAR

STARTCHAR caron
ENCODING 183
SWIDTH 340 0
DWIDTH 4 0
BBX 3 2 1 6
BITMAP
A0
40
ENDCHAR

STARTCHAR commaaccent
ENCODING 184
SWIDTH 333 0
DWIDTH 4 0
BBX 2 3 0 -4
BITMAP
40
40
80
ENDCHAR

STARTCHAR scaron
ENCODING 185
SWIDTH 320 0
DWIDTH 4 0
BBX 5 8 0 0
BITMAP
28
10
00
38
40
70
10
E0
ENDCHAR

STARTCHAR scommaaccent
ENCODING 186
SWIDTH 320 0
DWIDTH 4 0
BBX 5 9 0 -4
BITMAP
38
40
70
10
E0
00
40
40
80
ENDCHAR

STARTCHAR tcaron
ENCODING 187
SWIDTH 320 0
DWIDTH 4 0
BBX 5 8 1 0
BITMAP
18
48
50
E0
40
80
A0
C0
ENDCHAR

STARTCHAR zacute
ENCODING 188
SWIDTH 440 0
DWIDTH 6 0
BBX 6 8 0 0
BITMAP
04
08
00
3C
48
30
44
F8
ENDCHAR

STARTCHAR hungarumlaut
ENCODING 189
SWIDTH 400 0
DWIDTH 5 0
BBX 4 2 1 6
BITMAP
50
A0
ENDCHAR

STARTCHAR zcaron
ENCODING 190
SWIDTH 440 0
DWIDTH 6 0
BBX 6 8 0 0
BITMAP
14
08
00
3C
48
30
44
F8
ENDCHAR

STARTCHAR zdotaccent
ENCODING 191
SWIDTH 440 0
DWIDTH 6 0
BBX 6 7 0 0
BITMAP
08
00
3C
48
30
44
F8
ENDCHAR

STARTCHAR Racute
ENCODING 192
SWIDTH 600 0
DWIDTH 8 0
BBX 9 13 0 -2
BITMAP
0400
0800
0000
3C00
4200
9200
9200
5C00
2800
2400
7400
0480
0300
ENDCHAR

STARTCHAR Aacute
ENCODING 193
SWIDTH 620 0
DWIDTH 8 0
BBX 9 13 -1 -2
BITMAP
0080
0100
0000
0780
0980
1280
0480
0700
0900
1100
1180
2000
C000
ENDCHAR

STARTCHAR Acircumflex
ENCODING 194
SWIDTH 620 0
DWIDTH 8 0
BBX 9 13 -1 -2
BITMAP
0100
0280
0000
0780
0980
1280
0480
0700
0900
1100
1180
2000
C000
ENDCHAR

STARTCHAR Abreve
ENCODING 195
SWIDTH 620 0
DWIDTH 8 0
BBX 10 13 -1 -2
BITMAP
0240
0180
0000
0780
0980
1280
0480
0700
0900
1100
1180
2000
C000
ENDCHAR

STARTCHAR Adieresis
ENCODING 196
SWIDTH 620 0
DWIDTH 8 0
BBX 9 12 -1 -2
BITMAP
0480
0000
0780
0980
1280
0480
0700
0900
1100
1180
2000
C000
ENDCHAR

STARTCHAR Lacute
ENCODING 197
SWIDTH 580 0
DWIDTH 8 0
BBX 7 11 1 0
BITMAP
04
08
00
18
24
20
20
40
40
42
FC
ENDCHAR

STARTCHAR Cacute
ENCODING 198
SWIDTH 520 0
DWIDTH 7 0
BBX 7 12 0 -1
BITMAP
04
08
00
1E
22
42
80
80
80
80
48
30
ENDCHAR

STARTCHAR Ccedilla
ENCODING 199
SWIDTH 520 0
DWIDTH 7 0
BBX 7 12 0 -4
BITMAP
1E
22
42
80
80
80
80
48
30
20
10
60
ENDCHAR

STARTCHAR Ccaron
ENCODING 200
SWIDTH 520 0
DWIDTH 7 0
BBX 7 12 0 -1
BITMAP
14
08
00
1E
22
42
80
80
80
80
48
30
ENDCHAR

STARTCHAR Eacute
ENCODING 201
SWIDTH 620 0
DWIDTH 8 0
BBX 8 11 0 0
BITMAP
02
04
00
3F
49
88
8E
50
10
11
3E
ENDCHAR

STARTCHAR Eogonek
ENCODING 202
SWIDTH 620 0
DWIDTH 8 0
BBX 8 11 0 -3
BITMAP
3F
49
88
8E
50
10
11
3E
04
04
03
ENDCHAR

STARTCHAR Edieresis
ENCODING 203
SWIDTH 620 0
DWIDTH 8 0
BBX 8 10 0 0
BITMAP
0A
00
3F
49
88
8E
50
10
11
3E
ENDCHAR

STARTCHAR Ecaron
ENCODING 204
SWIDTH 620 0
DWIDTH 8 0
BBX 8 11 0 0
BITMAP
0A
04
00
3F
49
88
8E
50
10
11
3E
ENDCHAR

STARTCHAR Iacute
ENCODING 205
SWIDTH 380 0
DWIDTH 5 0
BBX 4 11 1 0
BITMAP
10
20
00
70
20
20
20
40
40
40
E0
ENDCHAR

STARTCHAR Icircumflex
ENCODING 206
SWIDTH 380 0
DWIDTH 5 0
BBX 4 11 1 0
BITMAP
20
50
00
70
20
20
20
40
40
40
E0
ENDCHAR

STARTCHAR Dcaron
ENCODING 207
SWIDTH 700 0
DWIDTH 9 0
BBX 9 11 0 0
BITMAP
0A00
0400
0000
3E00
4100
8880
8880
8880
5080
1100
3E00
ENDCHAR

STARTCHAR Dcroat
ENCODING 208
SWIDTH 700 0
DWIDTH 9 0
BBX 9 8 0 0
BITMAP
3E00
4100
8880
8880
BE80
5080
1100
3E00
ENDCHAR

STARTCHAR Nacute
ENCODING 209
SWIDTH 700 0
DWIDTH 9 0
BBX 10 11 1 0
BITMAP
0200
0400
0000
70C0
9900
9900
5500
1500
2600
2200
C200
ENDCHAR

STARTCHAR Ncaron
ENCODING 210
SWIDTH 700 0
DWIDTH 9 0
BBX 10 11 1 0
BITMAP
0A00
0400
0000
70C0
9900
9900
5500
1500
2600
2200
C200
ENDCHAR

STARTCHAR Oacute
ENCODING 211
SWIDTH 600 0
DWIDTH 8 0
BBX 7 11 1 0
BITMAP
04
08
00
1C
22
42
42
84
84
88
70
ENDCHAR

STARTCHAR Ocircumflex
ENCODING 212
SWIDTH 600 0
DWIDTH 8 0
BBX 7 11 1 0
BITMAP
08
14
00
1C
22
42
42
84
84
88
70
ENDCHAR

STARTCHAR Ohungarumlaut
ENCODING 213
SWIDTH 600 0
DWIDTH 8 0
BBX 7 11 1 0
BITMAP
0A
14
00
1C
22
42
42
84
84
88
70
ENDCHAR

STARTCHAR Odieresis
ENCODING 214
SWIDTH 600 0
DWIDTH 8 0
BBX 7 10 1 0
BITMAP
0A
00
1C
22
42
42
84
84
88
70
ENDCHAR

STARTCHAR multiply
ENCODING 215
SWIDTH 520 0
DWIDTH 7 0
BBX 5 5 1 1
BITMAP
88
50
20
50
88
ENDCHAR

STARTCHAR Rcaron
ENCODING 216
SWIDTH 600 0
DWIDTH 8 0
BBX 9 13 0 -2
BITMAP
1400
0800
0000
3C00
4200
9200
9200
5C00
2800
2400
7400
0480
0300
ENDCHAR

STARTCHAR Uring
ENCODING 217
SWIDTH 740 0
DWIDTH 10 0
BBX 9 11 1 0
BITMAP
0200
0500
0500
7A80
8880
9080
1080
2100
2100
2200
1C00
ENDCHAR

STARTCHAR Uacute
ENCODING 218
SWIDTH 740 0
DWIDTH 10 0
BBX 9 11 1 0
BITMAP
0100
0200
0000
7880
8880
9080
1080
2100
2100
2200
1C00
ENDCHAR

STARTCHAR Uhungarumlaut
ENCODING 219
SWIDTH 740 0
DWIDTH 10 0
BBX 9 11 1 0
BITMAP
0280
0500
0000
7880
8880
9080
1080
2100
2100
2200
1C00
ENDCHAR

STARTCHAR Udieresis
ENCODING 220
SWIDTH 740 0
DWIDTH 10 0
BBX 9 10 1 0
BITMAP
0900
0000
7880
8880
9080
1080
2100
2100
2200
1C00
ENDCHAR

STARTCHAR Yacute
ENCODING 221
SWIDTH 560 0
DWIDTH 7 0
BBX 8 11 0 0
BITMAP
04
08
00
63
94
94
48
08
10
10
38
ENDCHAR

STARTCHAR Tcommaaccent
ENCODING 222
SWIDTH 500 0
DWIDTH 7 0
BBX 9 12 0 -4
BITMAP
3F80
4800
8800
8800
5000
1000
1000
3800
0000
1000
1000
2000
ENDCHAR

STARTCHAR germandbls
ENCODING 223
SWIDTH 420 0
DWIDTH 5 0
BBX 9 13 -2 -3
BITMAP
0300
0480
0480
0500
0A00
0A00
0900
0900
1500
1600
1000
2000
C000
ENDCHAR

STARTCHAR racute
ENCODING 224
SWIDTH 300 0
DWIDTH 4 0
BBX 4 8 1 0
BITMAP
10
20
00
50
E0
40
80
80
ENDCHAR

STARTCHAR aacute
ENCODING 225
SWIDTH 420 0
DWIDTH 5 0
BBX 5 8 0 0
BITMAP
08
10
00
38
48
90
B0
D8
ENDCHAR

STARTCHAR acircumflex
ENCODING 226
SWIDTH 420 0
DWIDTH 5 0
BBX 5 8 0 0
BITMAP
10
28
00
38
48
90
B0
D8
ENDCHAR

STARTCHAR abreve
ENCODING 227
SWIDTH 420 0
DWIDTH 5 0
BBX 6 8 0 0
BITMAP
24
18
00
38
48
90
B0
D8
ENDCHAR

STARTCHAR adieresis
ENCODING 228
SWIDTH 420 0
DWIDTH 5 0
BBX 5 7 0 0
BITMAP
28
00
38
48
90
B0
D8
ENDCHAR

STARTCHAR lacute
ENCODING 229
SWIDTH 240 0
DWIDTH 3 0
BBX 4 11 0 0
BITMAP
10
20
00
30
40
40
40
80
80
A0
40
ENDCHAR

STARTCHAR cacute
ENCODING 230
SWIDTH 340 0
DWIDTH 4 0
BBX 4 8 0 0
BITMAP
10
20
00
30
50
80
90
E0
ENDCHAR

STARTCHAR ccedilla
ENCODING 231
SWIDTH 340 0
DWIDTH 4 0
BBX 5 8 -1 -3
BITMAP
18
28
40
48
70
40
20
C0
ENDCHAR

STARTCHAR ccaron
ENCODING 232
SWIDTH 340 0
DWIDTH 4 0
BBX 5 8 0 0
BITMAP
28
10
00
30
50
80
90
E0
ENDCHAR

STARTCHAR eacute
ENCODING 233
SWIDTH 340 0
DWIDTH 4 0
BBX 4 8 0 0
BITMAP
10
20
00
30
50
E0
80
60
ENDCHAR

STARTCHAR eogonek
ENCODING 234
SWIDTH 340 0
DWIDTH 4 0
BBX 4 8 0 -3
BITMAP
30
50
E0
80
60
40
40
30
ENDCHAR

STARTCHAR edieresis
ENCODING 235
SWIDTH 340 0
DWIDTH 4 0
BBX 5 7 0 0
BITMAP
28
00
30
50
E0
80
60
ENDCHAR

STARTCHAR ecaron
ENCODING 236
SWIDTH 340 0
DWIDTH 4 0
BBX 5 8 0 0
BITMAP
28
10
00
30
50
E0
80
60
ENDCHAR

STARTCHAR iacute
ENCODING 237
SWIDTH 240 0
DWIDTH 3 0
BBX 3 8 0 0
BITMAP
20
40
00
C0
40
80
A0
C0
ENDCHAR

STARTCHAR icircumflex
ENCODING 238
SWIDTH 240 0
DWIDTH 3 0
BBX 3 8 0 0
BITMAP
40
A0
00
C0
40
80
A0
C0
ENDCHAR

STARTCHAR dcaron
ENCODING 239
SWIDTH 483 0
DWIDTH 7 0
BBX 9 8 0 0
BITMAP
0680
0880
0900
3800
4800
9000
B000
D800
ENDCHAR

STARTCHAR dcroat
ENCODING 240
SWIDTH 440 0
DWIDTH 6 0
BBX 7 9 0 0
BITMAP
06
08
3E
08
38
48
90
B0
D8
ENDCHAR

STARTCHAR nacute
ENCODING 241
SWIDTH 460 0
DWIDTH 6 0
BBX 5 8 1 0
BITMAP
08
10
00
58
E8
48
90
98
ENDCHAR

STARTCHAR ncaron
ENCODING 242
SWIDTH 460 0
DWIDTH 6 0
BBX 5 8 1 0
BITMAP
28
10
00
58
E8
48
90
98
ENDCHAR

STARTCHAR oacute
ENCODING 243
SWIDTH 400 0
DWIDTH 5 0
BBX 5 8 0 0
BITMAP
08
10
00
30
48
88
90
60
ENDCHAR

STARTCHAR ocircumflex
ENCODING 244
SWIDTH 400 0
DWIDTH 5 0
BBX 5 8 0 0
BITMAP
10
28
00
30
48
88
90
60
ENDCHAR

STARTCHAR ohungarumlaut
ENCODING 245
SWIDTH 400 0
DWIDTH 5 0
BBX 5 8 0 0
BITMAP
28
50
00
30
48
88
90
60
ENDCHAR

STARTCHAR odieresis
ENCODING 246
SWIDTH 400 0
DWIDTH 5 0
BBX 5 7 0 0
BITMAP
28
00
30
48
88
90
60
ENDCHAR

STARTCHAR divide
ENCODING 247
SWIDTH 520 0
DWIDTH 7 0
BBX 5 5 1 1
BITMAP
20
00
F8
00
20
ENDCHAR

STARTCHAR rcaron
ENCODING 248
SWIDTH 300 0
DWIDTH 4 0
BBX 4 8 1 0
BITMAP
50
20
00
50
E0
40
80
80
ENDCHAR

STARTCHAR uring
ENCODING 249
SWIDTH 460 0
DWIDTH 6 0
BBX 5 9 1 0
BITMAP
10
28
10
00
48
C8
50
B0
D8
ENDCHAR

STARTCHAR uacute
ENCODING 250
SWIDTH 460 0
DWIDTH 6 0
BBX 5 8 1 0
BITMAP
10
20
00
48
C8
50
B0
D8
ENDCHAR

STARTCHAR uhungarumlaut
ENCODING 251
SWIDTH 460 0
DWIDTH 6 0
BBX 5 8 1 0
BITMAP
28
50
00
48
C8
50
B0
D8
ENDCHAR

STARTCHAR udieresis
ENCODING 252
SWIDTH 460 0
DWIDTH 6 0
BBX 5 7 1 0
BITMAP
28
00
48
C8
50
B0
D8
ENDCHAR

STARTCHAR yacute
ENCODING 253
SWIDTH 400 0
DWIDTH 5 0
BBX 7 12 -2 -4
BITMAP
02
04
00
1A
2A
0A
0C
08
08
10
10
E0
ENDCHAR

STARTCHAR tcommaaccent
ENCODING 254
SWIDTH 320 0
DWIDTH 4 0
BBX 4 11 0 -4
BITMAP
20
20
70
20
40
50
60
00
40
40
80
ENDCHAR

STARTCHAR dotaccent
ENCODING 255
SWIDTH 220 0
DWIDTH 3 0
BBX 1 1 1 7
BITMAP
80
ENDCHAR
ENDFONT
